<svg xmlns="http://www.w3.org/2000/svg" width="24" height="24" viewBox="0 0 24 24" fill="none" stroke="currentColor" stroke-width="2" stroke-linecap="round" stroke-linejoin="round"><path d="M12.22 5.88a2.5 2.5 0 0 0-2.34 2.34v7.95l-1.1.92a2.5 2.5 0 0 0 .18 4.09h.18a2.5 2.5 0 0 0 2.34-2.34v-7.95l1.1-.92a2.5 2.5 0 0 0-.18-4.09Z"/><path d="M16.31 3.69a2.5 2.5 0 0 0-2.34 2.34v7.95l-1.1.92a2.5 2.5 0 0 0 .18 4.09h.18a2.5 2.5 0 0 0 2.34-2.34V6.03l1.1-.92a2.5 2.5 0 0 0-.18-4.09Z"/><path d="M8.13 8.07a2.5 2.5 0 0 0-2.34 2.34v7.95l-1.1.92a2.5 2.5 0 0 0 .18 4.09h.18a2.5 2.5 0 0 0 2.34-2.34V10.4l1.1-.92a2.5 2.5 0 0 0-.18-4.09Z"/></svg>